<svg width="21" height="20" viewBox="0 0 21 20" fill="none" xmlns="http://www.w3.org/2000/svg">
<path d="M10.58 0C7.86418 0 7.52334 0.0118752 6.45666 0.0604169C5.39207 0.109167 4.66539 0.277708 4.02955 0.525C3.37184 0.780417 2.81392 1.12208 2.25808 1.67813C1.70182 2.23396 1.36015 2.79187 1.1039 3.44937C0.855979 4.08542 0.687228 4.81229 0.63931 5.87646C0.591602 6.94312 0.579102 7.28417 0.579102 10C0.579102 12.7158 0.591185 13.0556 0.639519 14.1223C0.688478 15.1869 0.857021 15.9135 1.10411 16.5494C1.35973 17.2071 1.7014 17.765 2.25745 18.3208C2.81308 18.8771 3.37101 19.2196 4.0283 19.475C4.66456 19.7223 5.39144 19.8908 6.45583 19.9396C7.52251 19.9881 7.86314 20 10.5788 20C13.2949 20 13.6347 19.9881 14.7013 19.9396C15.7659 19.8908 16.4934 19.7223 17.1297 19.475C17.7872 19.2196 18.3443 18.8771 18.8999 18.3208C19.4562 17.765 19.7978 17.2071 20.0541 16.5496C20.2999 15.9135 20.4687 15.1867 20.5187 14.1225C20.5666 13.0558 20.5791 12.7158 20.5791 10C20.5791 7.28417 20.5666 6.94333 20.5187 5.87667C20.4687 4.81208 20.2999 4.08542 20.0541 3.44958C19.7978 2.79187 19.4562 2.23396 18.8999 1.67813C18.3437 1.12188 17.7874 0.780208 17.1291 0.525C16.4916 0.277708 15.7645 0.109167 14.6999 0.0604169C13.6332 0.0118752 13.2936 0 10.5769 0H10.58ZM9.68295 1.80208C9.9492 1.80167 10.2463 1.80208 10.58 1.80208C13.2501 1.80208 13.5665 1.81167 14.6209 1.85958C15.5959 1.90417 16.1251 2.06708 16.4776 2.20396C16.9443 2.38521 17.277 2.60187 17.6268 2.95187C17.9768 3.30187 18.1935 3.63521 18.3751 4.10187C18.512 4.45396 18.6751 4.98312 18.7195 5.95812C18.7674 7.01229 18.7778 7.32896 18.7778 9.99771C18.7778 12.6665 18.7674 12.9831 18.7195 14.0373C18.6749 15.0123 18.512 15.5415 18.3751 15.8935C18.1939 16.3602 17.9768 16.6925 17.6268 17.0423C17.2768 17.3923 16.9445 17.609 16.4776 17.7902C16.1255 17.9277 15.5959 18.0902 14.6209 18.1348C13.5667 18.1827 13.2501 18.1931 10.58 18.1931C7.9098 18.1931 7.59334 18.1827 6.53916 18.1348C5.56415 18.0898 5.03498 17.9269 4.68227 17.79C4.2156 17.6087 3.88226 17.3921 3.53226 17.0421C3.18225 16.6921 2.96558 16.3596 2.78392 15.8927C2.64704 15.5406 2.48391 15.0115 2.43954 14.0365C2.39162 12.9823 2.38204 12.6656 2.38204 9.99521C2.38204 7.32479 2.39162 7.00979 2.43954 5.95563C2.48412 4.98063 2.64704 4.45146 2.78392 4.09896C2.96517 3.63229 3.18225 3.29896 3.53226 2.94896C3.88226 2.59896 4.2156 2.38229 4.68227 2.20062C5.03477 2.06312 5.56415 1.90063 6.53916 1.85583C7.46167 1.81417 7.81918 1.80167 9.68295 1.79958V1.80208ZM15.918 3.4625C15.2555 3.4625 14.718 3.99937 14.718 4.66208C14.718 5.32458 15.2555 5.86208 15.918 5.86208C16.5805 5.86208 17.118 5.32458 17.118 4.66208C17.118 3.99958 16.5805 3.46208 15.918 3.46208V3.4625ZM10.58 4.86458C7.74397 4.86458 5.44457 7.16396 5.44457 10C5.44457 12.836 7.74397 15.1344 10.58 15.1344C13.4161 15.1344 15.7147 12.836 15.7147 10C15.7147 7.16396 13.4161 4.86458 10.58 4.86458ZM10.58 6.66667C12.4209 6.66667 13.9134 8.15896 13.9134 10C13.9134 11.8408 12.4209 13.3333 10.58 13.3333C8.73898 13.3333 7.24667 11.8408 7.24667 10C7.24667 8.15896 8.73898 6.66667 10.58 6.66667Z" fill="white"/>
</svg>
