<svg width="21" height="20" viewBox="0 0 21 20" fill="none" xmlns="http://www.w3.org/2000/svg">
<path fill-rule="evenodd" clip-rule="evenodd" d="M20.5791 20H16.5791V13.001C16.5791 11.081 15.7321 10.0098 14.2131 10.0098C12.5601 10.0098 11.5791 11.126 11.5791 13.001V20H7.5791V7H11.5791V8.46191C11.5791 8.46191 12.8341 6.25977 15.6621 6.25977C18.4911 6.25977 20.5791 7.98611 20.5791 11.5581V20ZM3.0211 4.9209C1.6721 4.9209 0.579102 3.81896 0.579102 2.45996C0.579102 1.10196 1.6721 0 3.0211 0C4.3691 0 5.4621 1.10196 5.4621 2.45996C5.4631 3.81896 4.3691 4.9209 3.0211 4.9209ZM0.579102 20H5.5791V7H0.579102V20Z" fill="white"/>
</svg>
