<svg width="50" height="51" viewBox="0 0 50 51" fill="none" xmlns="http://www.w3.org/2000/svg">
<path d="M23.5238 0.913086C26.5946 2.44439 29.8431 3.65331 33.2248 4.50366C25.991 8.16826 20.8198 12.0088 17.5664 18.741C17.8361 11.2045 21.5056 4.22405 23.5238 0.913086ZM6.27817 9.27849C9.53156 8.19129 12.6846 6.7488 15.6765 4.95927C13.1517 12.6651 12.2126 19.0387 14.6715 26.0998C9.53321 20.5782 7.19103 13.0484 6.27817 9.27849ZM43.7235 42.5477C40.4684 43.6365 37.3154 45.0774 34.3251 46.8669C36.8483 39.1611 37.7874 32.7891 35.3285 25.728C40.4668 31.248 42.809 38.7795 43.7235 42.5477ZM0 27.3893C1.5313 24.3201 2.74187 21.07 3.59058 17.69C7.25517 24.9237 11.0958 30.095 17.8279 33.3484C10.2915 33.077 3.31096 29.4091 0 27.3893ZM50.0016 24.4369C48.4703 27.5077 47.2598 30.7562 46.4111 34.1379C42.7465 26.9024 38.9042 21.7329 32.1721 18.4795C39.7102 18.7492 46.6907 22.4171 50.0016 24.4369ZM8.36705 44.6349C7.2782 41.3815 5.83572 38.2285 4.04619 35.2382C11.7537 37.7613 18.124 38.7022 25.1867 36.2416C19.6651 41.3799 12.1353 43.7221 8.36705 44.6349ZM41.6346 7.19125C42.7234 10.4446 44.1643 13.5977 45.9555 16.5896C38.248 14.0648 31.8761 13.1257 24.815 15.5846C30.3349 10.4463 37.8664 8.10411 41.6346 7.19125ZM26.4762 50.9131C23.407 49.3834 20.1569 48.1729 16.7769 47.3242C24.0107 43.6596 29.1819 39.8173 32.4353 33.0852C32.1655 40.6233 28.496 47.6038 26.4762 50.9131Z" fill="white"/>
</svg>
