<svg width="42" height="46" viewBox="0 0 42 46" fill="none" xmlns="http://www.w3.org/2000/svg">
<path d="M20.4468 22.3859C19.9043 22.3859 19.3841 22.1704 19.0005 21.7868C18.6169 21.4032 18.4014 20.883 18.4014 20.3405V16.2496C18.4014 15.7071 18.6169 15.1868 19.0005 14.8032C19.3841 14.4196 19.9043 14.2041 20.4468 14.2041C20.9893 14.2041 21.5096 14.4196 21.8932 14.8032C22.2768 15.1868 22.4923 15.7071 22.4923 16.2496V20.3405C22.4923 20.883 22.2768 21.4032 21.8932 21.7868C21.5096 22.1704 20.9893 22.3859 20.4468 22.3859Z" fill="white"/>
<path d="M28.6304 22.3864C28.0879 22.3864 27.5677 22.1709 27.1841 21.7873C26.8005 21.4037 26.585 20.8835 26.585 20.341V16.25C26.585 15.7076 26.8005 15.1873 27.1841 14.8037C27.5677 14.4201 28.0879 14.2046 28.6304 14.2046C29.1729 14.2046 29.6932 14.4201 30.0768 14.8037C30.4604 15.1873 30.6759 15.7076 30.6759 16.25V20.341C30.6759 20.8835 30.4604 21.4037 30.0768 21.7873C29.6932 22.1709 29.1729 22.3864 28.6304 22.3864Z" fill="white"/>
<path d="M36.8128 37.7306H12.2637C10.636 37.7306 9.07499 37.084 7.92403 35.933C6.77307 34.7821 6.12646 33.221 6.12646 31.5933C6.12646 29.9656 6.77307 28.4046 7.92403 27.2536C9.07499 26.1027 10.636 25.4561 12.2637 25.4561H28.6298C29.1723 25.4561 29.6927 25.6716 30.0763 26.0552C30.46 26.4389 30.6755 26.9592 30.6755 27.5018C30.6755 28.0444 30.46 28.5647 30.0763 28.9484C29.6927 29.332 29.1723 29.5476 28.6298 29.5476H12.2637C11.7212 29.5476 11.2008 29.7631 10.8172 30.1467C10.4335 30.5304 10.218 31.0507 10.218 31.5933C10.218 32.1359 10.4335 32.6562 10.8172 33.0399C11.2008 33.4235 11.7212 33.6391 12.2637 33.6391H36.8128C37.3553 33.6391 37.8757 33.8546 38.2593 34.2383C38.643 34.6219 38.8585 35.1423 38.8585 35.6848C38.8585 36.2274 38.643 36.7477 38.2593 37.1314C37.8757 37.515 37.3553 37.7306 36.8128 37.7306Z" fill="white"/>
<path d="M13.2876 45.9131C15.2645 45.9131 16.8671 44.3105 16.8671 42.3336C16.8671 40.3566 15.2645 38.754 13.2876 38.754C11.3106 38.754 9.70801 40.3566 9.70801 42.3336C9.70801 44.3105 11.3106 45.9131 13.2876 45.9131Z" fill="white"/>
<path d="M31.6987 45.9131C33.6756 45.9131 35.2782 44.3105 35.2782 42.3336C35.2782 40.3566 33.6756 38.754 31.6987 38.754C29.7218 38.754 28.1191 40.3566 28.1191 42.3336C28.1191 44.3105 29.7218 45.9131 31.6987 45.9131Z" fill="white"/>
<path d="M11.8944 29.5672C11.4156 29.5667 10.9522 29.3982 10.5848 29.0912C10.2174 28.7842 9.96924 28.3581 9.88365 27.887L6.63121 9.96667C6.52908 9.42449 6.31973 8.90816 6.01544 8.44795C5.71115 7.98774 5.31803 7.59291 4.85915 7.28661L0.903505 4.65551C0.45502 4.35371 0.144238 3.88666 0.0390816 3.35641C-0.0660743 2.82617 0.0429476 2.27585 0.34232 1.82575C0.641692 1.37564 1.10707 1.06235 1.63674 0.95434C2.16641 0.846329 2.7173 0.952385 3.16901 1.24933L7.13765 3.88835C8.05023 4.4982 8.83154 5.28449 9.43558 6.20092C10.0396 7.11736 10.4542 8.14539 10.6548 9.22449L13.9092 27.1558C13.9573 27.4201 13.9527 27.6913 13.896 27.9539C13.8392 28.2165 13.7312 28.4653 13.5783 28.6862C13.4253 28.907 13.2303 29.0956 13.0045 29.2411C12.7787 29.3866 12.5264 29.4862 12.262 29.5342C12.1408 29.5564 12.0177 29.5675 11.8944 29.5672Z" fill="white"/>
<path d="M33.4595 29.5472H15.679C14.2419 29.5476 12.8503 29.0435 11.7468 28.1229C10.6433 27.2023 9.89791 25.9236 9.64063 24.5098L7.33711 11.8686C7.2298 11.2789 7.25335 10.6728 7.4061 10.0932C7.55885 9.51363 7.83706 8.97465 8.22107 8.51442C8.60508 8.05418 9.0855 7.68393 9.62838 7.42983C10.1713 7.17573 10.7633 7.044 11.3627 7.04395H36.8687C37.6572 7.04376 38.435 7.22591 39.1414 7.57617C39.8478 7.92644 40.4636 8.43532 40.9408 9.06304C41.4179 9.69077 41.7434 10.4203 41.8918 11.1947C42.0402 11.9691 42.0075 12.7673 41.7963 13.5269L38.387 25.8015C38.0859 26.8774 37.4416 27.8256 36.5522 28.5017C35.6627 29.1778 34.5767 29.545 33.4595 29.5472ZM11.3627 11.1355L13.6662 23.7766C13.7519 24.2479 14.0003 24.6742 14.3682 24.9811C14.736 25.2879 15.1999 25.4559 15.679 25.4557H33.4595C33.6829 25.4552 33.9002 25.3818 34.0781 25.2466C34.2561 25.1113 34.385 24.9217 34.4454 24.7065L37.8546 12.432C37.897 12.2801 37.9036 12.1203 37.874 11.9654C37.8443 11.8104 37.7792 11.6645 37.6837 11.5389C37.5882 11.4133 37.4649 11.3115 37.3235 11.2415C37.1822 11.1715 37.0265 11.1352 36.8687 11.1355H11.3627Z" fill="white"/>
</svg>

