<svg width="50" height="51" viewBox="0 0 50 51" fill="none" xmlns="http://www.w3.org/2000/svg">
<path d="M31.9847 5.9697C28.6289 8.30343 20.6986 8.08481 16.4957 17.7094C16.7526 10.506 21.7753 2.81616 29.0552 1.12735C34.1709 -0.058641 34.8595 3.97483 31.9847 5.9697Z" fill="white"/>
<path d="M44.0468 16.7473C40.0242 16.0258 34.5643 10.2653 24.7867 14.0966C30.0608 9.18862 39.0569 7.30305 45.3967 11.2545C49.851 14.031 47.4845 17.3703 44.0468 16.7473Z" fill="white"/>
<path d="M44.9487 32.8981C42.6149 29.5424 42.8281 21.6121 33.209 17.4092C40.4069 17.6661 48.1022 22.6888 49.7856 29.9687C50.9716 35.0843 46.9436 35.7729 44.9487 32.8981Z" fill="white"/>
<path d="M34.1654 44.9603C34.8923 40.9377 40.6529 35.4778 36.8216 25.7002C41.7295 30.9743 43.6151 39.9704 39.6636 46.3102C36.8872 50.7645 33.5478 48.398 34.1654 44.9603Z" fill="white"/>
<path d="M18.0206 45.8618C21.3709 43.528 29.3067 43.7412 33.5096 34.1221C33.2527 41.32 28.2245 49.0153 20.95 50.6986C15.8344 51.8846 15.1458 47.8566 18.0206 45.8618Z" fill="white"/>
<path d="M5.95844 35.0785C9.98097 35.8054 15.4355 41.5659 25.2131 37.7347C19.9389 42.6426 10.9484 44.5282 4.60848 40.5767C0.154175 37.8003 2.5207 34.4609 5.95844 35.0785Z" fill="white"/>
<path d="M5.05662 18.9336C7.39034 22.2839 7.17173 30.2197 16.7963 34.4226C9.5929 34.1657 1.90308 29.1375 0.214266 21.8631C-0.971727 16.7475 3.06174 16.0588 5.05662 18.9336Z" fill="white"/>
<path d="M15.8344 6.87128C15.113 10.8938 9.35246 16.3483 13.1837 26.1259C8.27578 20.8518 6.39021 11.8612 10.3417 5.52132C13.1181 1.06702 16.4575 3.43354 15.8344 6.87128Z" fill="white"/>
</svg>
