<svg width="40" height="40" viewBox="0 0 40 40" fill="none" xmlns="http://www.w3.org/2000/svg">
<rect width="40" height="40" rx="12" fill="url(#paint0_linear_4532_1095)"/>
<path d="M24.968 7H15.032C10.5998 7 7 10.5998 7 15.032V24.968C7 29.4002 10.5998 33 15.032 33H24.968C29.4002 33 33 29.4002 33 24.968V15.032C33 10.5998 29.4002 7 24.968 7ZM30.0972 24.9784C30.0972 27.8083 27.7979 30.118 24.9576 30.118H15.0216C12.1917 30.118 9.88195 27.8187 9.88195 24.9784V15.0424C9.88195 12.2125 12.1813 9.90276 15.0216 9.90276H24.9576C27.7875 9.90276 30.0972 12.2021 30.0972 15.0424V24.9784Z" fill="white"/>
<path d="M19.992 13.3567C16.3297 13.3567 13.3438 16.3427 13.3438 20.0049C13.3438 23.6672 16.3297 26.6532 19.992 26.6532C23.6543 26.6532 26.6403 23.6672 26.6403 20.0049C26.6403 16.3427 23.6543 13.3567 19.992 13.3567ZM19.992 24.0418C17.7655 24.0418 15.9552 22.2314 15.9552 20.0049C15.9552 17.7785 17.7655 15.9681 19.992 15.9681C22.2185 15.9681 24.0288 17.7785 24.0288 20.0049C24.0288 22.2314 22.2185 24.0418 19.992 24.0418Z" fill="white"/>
<path d="M27.1473 14.0855C27.7598 13.9862 28.1759 13.4092 28.0766 12.7967C27.9773 12.1842 27.4003 11.7682 26.7878 11.8675C26.1752 11.9667 25.7592 12.5438 25.8585 13.1563C25.9578 13.7688 26.5348 14.1848 27.1473 14.0855Z" fill="white"/>
<defs>
<linearGradient id="paint0_linear_4532_1095" x1="4.77146" y1="35.2285" x2="33.1937" y2="6.80635" gradientUnits="userSpaceOnUse">
<stop stop-color="#FEE411"/>
<stop offset="0.0518459" stop-color="#FEDB16"/>
<stop offset="0.1381" stop-color="#FEC125"/>
<stop offset="0.2481" stop-color="#FE983D"/>
<stop offset="0.3762" stop-color="#FE5F5E"/>
<stop offset="0.5" stop-color="#FE2181"/>
<stop offset="1" stop-color="#9000DC"/>
</linearGradient>
</defs>
</svg>
