<svg width="40" height="40" viewBox="0 0 40 40" fill="none" xmlns="http://www.w3.org/2000/svg">
<path d="M34.5455 0H5.45455C2.44208 0 0 2.44208 0 5.45455V34.5455C0 37.5579 2.44208 40 5.45455 40H34.5455C37.5579 40 40 37.5579 40 34.5455V5.45455C40 2.44208 37.5579 0 34.5455 0Z" fill="#0077B5"/>
<path d="M14.41 10.9091C14.41 11.5833 14.21 12.2425 13.8354 12.8031C13.4608 13.3637 12.9284 13.8007 12.3055 14.0587C11.6826 14.3167 10.9971 14.3842 10.3358 14.2527C9.67451 14.1211 9.06707 13.7965 8.5903 13.3197C8.11353 12.8429 7.78884 12.2355 7.6573 11.5742C7.52576 10.9129 7.59327 10.2274 7.8513 9.60449C8.10933 8.98156 8.54628 8.44913 9.1069 8.07454C9.66752 7.69994 10.3266 7.5 11.0009 7.5C11.905 7.5 12.7722 7.85917 13.4115 8.4985C14.0508 9.13783 14.41 10.0049 14.41 10.9091Z" fill="white"/>
<path d="M13.6373 16.5908V31.6522C13.6379 31.7633 13.6165 31.8734 13.5744 31.9762C13.5323 32.0791 13.4703 32.1726 13.3919 32.2513C13.3136 32.3301 13.2204 32.3926 13.1178 32.4353C13.0152 32.478 12.9052 32.4999 12.7941 32.4999H9.20093C9.08982 32.5002 8.97974 32.4785 8.87703 32.4362C8.77432 32.3938 8.681 32.3315 8.60243 32.2529C8.52386 32.1744 8.4616 32.0811 8.41922 31.9783C8.37684 31.8756 8.35517 31.7656 8.35547 31.6545V16.5908C8.35547 16.3666 8.44455 16.1515 8.6031 15.993C8.76165 15.8344 8.9767 15.7454 9.20093 15.7454H12.7941C13.0179 15.746 13.2324 15.8353 13.3905 15.9938C13.5485 16.1523 13.6373 16.367 13.6373 16.5908Z" fill="white"/>
<path d="M32.4189 24.4317V31.7226C32.4192 31.8248 32.3993 31.926 32.3603 32.0204C32.3214 32.1149 32.2641 32.2007 32.1919 32.2729C32.1197 32.3452 32.0338 32.4024 31.9394 32.4414C31.845 32.4803 31.7438 32.5002 31.6416 32.4999H27.778C27.6758 32.5002 27.5746 32.4803 27.4802 32.4414C27.3857 32.4024 27.2999 32.3452 27.2277 32.2729C27.1554 32.2007 27.0982 32.1149 27.0592 32.0204C27.0203 31.926 27.0004 31.8248 27.0007 31.7226V24.6567C27.0007 23.6022 27.3098 20.0385 24.2439 20.0385C21.8689 20.0385 21.3848 22.4772 21.2893 23.5726V31.7226C21.2894 31.9268 21.209 32.1228 21.0657 32.2683C20.9224 32.4137 20.7276 32.4969 20.5234 32.4999H16.7916C16.6896 32.4999 16.5887 32.4798 16.4945 32.4407C16.4003 32.4016 16.3148 32.3443 16.2428 32.2721C16.1708 32.1999 16.1138 32.1142 16.0749 32.0199C16.0361 31.9256 16.0163 31.8246 16.0166 31.7226V16.5249C16.0163 16.4229 16.0361 16.3219 16.0749 16.2276C16.1138 16.1333 16.1708 16.0476 16.2428 15.9754C16.3148 15.9032 16.4003 15.8459 16.4945 15.8068C16.5887 15.7678 16.6896 15.7476 16.7916 15.7476H20.5234C20.7296 15.7476 20.9273 15.8295 21.073 15.9753C21.2188 16.1211 21.3007 16.3188 21.3007 16.5249V17.8385C22.1825 16.5158 23.4893 15.4954 26.278 15.4954C32.4552 15.4954 32.4189 21.2635 32.4189 24.4317Z" fill="white"/>
</svg>
