<svg width="137" height="50" viewBox="0 0 137 50" fill="none" xmlns="http://www.w3.org/2000/svg">
<path d="M57.5785 8.68312C59.0848 13.1818 61.0773 17.5427 63.5533 21.6798C52.8949 18.1882 44.0841 16.8885 34.3179 20.2912C41.9524 13.1846 52.367 9.94549 57.5785 8.68312ZM0 36.616C2.11734 32.3698 3.79142 27.8769 4.96629 23.2018C10.033 33.2061 15.3464 40.3558 24.6564 44.8558C14.2333 44.4829 4.57897 39.409 0 36.616ZM8.68312 11.5708C13.1832 10.0646 17.5427 8.07058 21.6798 5.59461C18.1882 16.253 16.8885 25.0653 20.2912 34.8314C13.1846 27.197 9.94549 16.781 8.68312 11.5708ZM32.5334 0C36.7781 2.11734 41.2724 3.78999 45.9475 4.96485C35.9432 10.033 28.7936 15.345 24.2935 24.6564C24.6665 14.2318 29.7404 4.57897 32.5334 0Z" fill="url(#paint0_linear_2743_1175)"/>
<path d="M27.3525 45.8975V26.9404H50.4124V31.5524H31.9645V43.347C36.4732 47.2001 43.1724 48.8699 50.4124 50.0002H49.9203C41.2817 49.9759 33.7591 48.6073 27.3525 45.8975Z" fill="#1F94D2"/>
<path d="M54.0859 50.0004V34.7529H66.2836H69.3334V37.8027V40.8525V43.9023H66.2836H57.1357V46.9506H66.2836V46.1889H69.3334V46.9506V50.0004H66.2836H54.0859ZM66.2836 37.8027H57.1357V40.8525H66.2836V37.8027Z" fill="#1F94D2"/>
<path d="M72.3828 50.0002V26.9404H75.4326V50.0002H72.3828Z" fill="#1F94D2"/>
<path d="M78.4824 50.0004V46.9506H90.6801V43.9023H78.4824V34.7529H93.7284V37.8027H81.5308V40.8525H93.7284V50.0004H78.4824Z" fill="#1F94D2"/>
<path d="M96.7783 50.0004V34.7529H99.8281V50.0004H96.7783Z" fill="#1F94D2"/>
<path d="M102.877 50.0004V34.7529H105.927V46.9506H115.075V34.7529H118.124V50.0004H102.877Z" fill="#1F94D2"/>
<path d="M121.176 50.0004V46.9506H133.373V43.9023H121.176V34.7529H136.423V37.8027H124.226V40.8525H136.423V50.0004H121.176Z" fill="#1F94D2"/>
<path d="M96.7783 32.4364V29.3838H99.8281V32.4364H96.7783Z" fill="#1F94D2"/>
<defs>
<linearGradient id="paint0_linear_2743_1175" x1="31.7745" y1="49.8293" x2="56.5156" y2="16.4611" gradientUnits="userSpaceOnUse">
<stop stop-color="#1F94D2"/>
<stop offset="1" stop-color="#0044CC"/>
</linearGradient>
</defs>
</svg>
