<svg width="56" height="51" viewBox="0 0 56 51" fill="none" xmlns="http://www.w3.org/2000/svg">
<g clip-path="url(#clip0_2359_2421)">
<path fill-rule="evenodd" clip-rule="evenodd" d="M33.2744 1.1685L36.4902 3.57691C37.3714 4.23208 38.2942 4.56888 39.3923 4.62886L43.3971 4.85494C45.8009 4.98874 47.7479 6.62203 48.297 8.96124L49.2151 12.8738C49.4643 13.9396 49.9533 14.7931 50.7561 15.5452L53.6813 18.2904C55.4345 19.9375 55.8775 22.4428 54.7932 24.5882L52.9846 28.1732C52.4863 29.1513 52.3156 30.1202 52.4448 31.2137L52.9246 35.1954C53.2061 37.5854 51.9373 39.7862 49.7272 40.7366L46.0362 42.3145C45.0258 42.7482 44.2737 43.3803 43.6693 44.2985L41.4731 47.6573C40.1582 49.669 37.7682 50.541 35.4659 49.8443L31.6226 48.6862C30.5707 48.3679 29.5879 48.3679 28.536 48.6862L24.6927 49.8443C22.395 50.541 20.0004 49.669 18.6855 47.6573L16.4893 44.2985C15.8895 43.3803 15.1328 42.7482 14.1224 42.3145L11.5664 41.2211H18.9254C19.4744 41.2211 20.005 41.0596 20.4572 40.7458L20.4849 40.7274L20.5125 40.7089C20.8124 40.4875 21.057 40.2106 21.2461 39.8923C23.8299 41.4379 26.8519 42.3284 30.0816 42.3284C34.8431 42.3284 39.1524 40.3952 42.2713 37.2762C45.3903 34.1573 47.3234 29.848 47.3234 25.0865C47.3234 20.3251 45.3903 16.0158 42.2713 12.8922C39.1524 9.77327 34.8431 7.8447 30.0816 7.8447C25.6754 7.8447 21.6522 9.49644 18.607 12.2186C18.3994 11.9833 18.1826 11.7618 17.9473 11.545C16.9645 10.6545 15.7926 10.0316 14.5423 9.60717C13.6703 9.31189 12.7613 9.13195 11.8478 9.03506L11.8616 8.96124C12.4107 6.62203 14.3623 4.98874 16.7615 4.85494L20.7709 4.62886C21.8644 4.56888 22.7918 4.23208 23.6684 3.57691L26.8842 1.1685C28.8082 -0.271011 31.3504 -0.271011 33.2744 1.1685ZM2.14955 32.667L6.95254 27.5319C7.75073 26.6968 8.53969 25.8109 9.21331 24.8697C9.69314 24.1915 10.1638 23.4671 10.5282 22.715C10.7912 22.166 11.0219 21.5846 11.1511 20.9941C11.2572 20.505 11.3172 20.0021 11.3172 19.5038C11.3172 19.1255 11.2572 18.7518 11.128 18.3919C11.0127 18.0689 10.8374 17.7782 10.6067 17.5291C10.3621 17.2707 10.0669 17.0862 9.7439 16.957C9.33327 16.7909 8.86727 16.7401 8.42896 16.7401C7.74611 16.7401 7.04943 16.8186 6.39888 17.0308C5.85445 17.2061 5.31002 17.423 4.8025 17.6998C4.40109 17.912 3.99969 18.1427 3.62136 18.3965C3.29378 18.618 2.88315 18.8487 2.47713 18.8487C2.18185 18.8487 1.90963 18.7425 1.69278 18.5441C1.47132 18.355 1.34675 18.0828 1.2637 17.8105L1.25908 17.7967V17.7829C1.18526 17.483 1.13451 17.1831 1.10222 16.8786C1.05608 16.4495 1.04685 16.0065 1.04685 15.5775C1.04685 15.2776 1.05146 14.973 1.07915 14.6778C1.10222 14.4517 1.13913 14.2256 1.19911 14.0041C1.24986 13.7919 1.32829 13.5797 1.43902 13.3905L1.44364 13.3813L1.44825 13.3767C1.57744 13.1737 1.74815 12.9845 1.91886 12.8184L1.92809 12.8092L1.93732 12.7999C2.25106 12.5139 2.68475 12.2601 3.05386 12.0525C3.64904 11.7249 4.28575 11.4573 4.92707 11.2312C5.71142 10.9544 6.51884 10.7376 7.33548 10.5715C8.24902 10.3869 9.1764 10.2992 10.1038 10.2992C11.451 10.2992 12.8305 10.4515 14.1086 10.8852C15.1836 11.2497 16.1986 11.7803 17.0383 12.5462C17.8273 13.2613 18.4179 14.1195 18.81 15.1115C19.2022 16.1127 19.3822 17.1646 19.3822 18.2396C19.3822 19.1762 19.2945 20.1082 19.1146 21.0264C18.9069 22.0783 18.4779 23.0934 17.9703 24.0392C17.3152 25.2526 16.4708 26.4107 15.6034 27.4857C14.3808 28.9991 13.0059 30.4293 11.6309 31.795L9.51321 33.9543H18.8377C19.1238 33.9543 19.3914 34.042 19.6221 34.2081C19.862 34.3695 20.0281 34.6048 20.1527 34.8632C20.2911 35.14 20.3603 35.4538 20.4064 35.7583C20.4618 36.132 20.4803 36.5196 20.4803 36.8979C20.4803 37.2809 20.471 37.673 20.4203 38.0514C20.388 38.342 20.3234 38.6281 20.2311 38.9049L20.2265 38.9188L20.2173 38.9326C20.1111 39.2048 19.9497 39.4494 19.7144 39.6247L19.7051 39.6293L19.6959 39.6339C19.4652 39.7908 19.2022 39.8692 18.9254 39.8692H2.97081C2.64784 39.8692 2.31104 39.8415 1.99268 39.7631C1.64665 39.6708 1.33291 39.4909 1.0976 39.2187C0.843841 38.9326 0.710041 38.5727 0.631606 38.199C0.539329 37.7607 0.520874 37.2855 0.520874 36.8379C0.520874 36.4088 0.534715 35.9659 0.590081 35.5368C0.640833 35.1677 0.723882 34.7986 0.880752 34.4526C1.01917 34.1389 1.18526 33.8436 1.38366 33.5667C1.61435 33.2438 1.87272 32.9485 2.14955 32.667ZM28.0285 26.4615L24.5404 22.9734C23.6361 22.0691 22.1735 22.0691 21.2692 22.9734C20.3649 23.8777 20.3649 25.3449 21.2692 26.2492L26.3998 31.3798C27.2995 32.2841 28.7667 32.2841 29.671 31.3798C32.7622 28.2885 35.8212 25.1604 38.8986 22.0553C39.7983 21.1463 39.7937 19.6838 38.8894 18.7841C37.9851 17.8844 36.5179 17.889 35.6182 18.7979L28.0285 26.4615ZM41.081 14.0872C38.2619 11.2728 34.3771 9.52874 30.0816 9.52874C26.0353 9.52874 22.3535 11.0744 19.5852 13.6027C19.7651 13.9257 19.9266 14.2671 20.065 14.6178C20.5218 15.7759 20.7294 16.9939 20.7294 18.2396C20.7294 19.2593 20.6325 20.2836 20.4387 21.2847C20.2034 22.4751 19.7328 23.6101 19.1561 24.6759C18.4594 25.977 17.5782 27.1858 16.6508 28.3347C16.2125 28.8745 15.7603 29.4051 15.2943 29.9264C15.5988 30.863 15.991 31.7581 16.4616 32.6071H18.8377C19.4006 32.6071 19.9358 32.7778 20.3926 33.1054C20.8217 33.4006 21.1354 33.802 21.3661 34.268C21.5645 34.6741 21.6706 35.1124 21.7398 35.5599C21.8044 36.0028 21.8275 36.4504 21.8275 36.8979C21.8275 37.3408 21.8183 37.7792 21.7629 38.2175L21.7583 38.2313C24.1667 39.7539 27.018 40.6397 30.0816 40.6397C34.3771 40.6397 38.2619 38.9003 41.081 36.0859C43.8954 33.2715 45.6348 29.382 45.6348 25.0865C45.6348 20.7911 43.8954 16.9016 41.081 14.0872Z" fill="white"/>
</g>
<defs>
<clipPath id="clip0_2359_2421">
<rect width="54.8583" height="50" fill="white" transform="translate(0.520874 0.0869141)"/>
</clipPath>
</defs>
</svg>
