<svg width="51" height="51" viewBox="0 0 51 51" fill="none" xmlns="http://www.w3.org/2000/svg">
<path d="M50.9501 10.5352V42.6346C50.9501 43.425 50.2662 44.0702 49.4284 44.0702H47.4281L22.9196 20.9393C22.364 20.415 21.6373 20.1328 20.8594 20.1328C19.2437 20.1328 17.9273 21.3667 17.9273 22.8911V44.0702H7.23314C4.9336 44.0702 2.8905 42.4814 2.67679 40.328C2.43746 37.86 4.48907 35.7953 7.0451 35.7953C9.46428 35.7953 11.4305 37.6423 11.4305 39.9328V9.09961H49.4284C50.2662 9.09961 50.9501 9.74482 50.9501 10.5352Z" fill="white"/>
<path d="M19.637 22.8897V48.9413C19.637 49.5738 20.1804 50.0866 20.8508 50.0866H48.4561C49.5374 50.0866 50.0791 48.8532 49.3145 48.1317L21.7092 22.08C20.9446 21.3584 19.637 21.8693 19.637 22.8897ZM25.2704 44.7635V32.9641L37.7768 44.7635H25.2704Z" fill="white"/>
<path d="M9.72075 8.68823V34.763C8.90863 34.392 8.0025 34.1823 7.04508 34.1823C3.8394 34.1823 1.1979 36.5373 0.975627 39.5053C0.958567 39.6505 0.950012 39.7876 0.950012 39.9327V8.68823C0.950012 6.40577 2.91615 4.55078 5.33539 4.55078C7.75456 4.55079 9.72075 6.40577 9.72075 8.68823Z" fill="white"/>
<path d="M24.5519 0.0908203H40.5121V7.10749H24.5519V0.0908203Z" fill="white"/>
<path d="M22.8409 7.10676L16.9731 4.23842C16.4219 3.96901 16.4219 3.22527 16.973 2.95582L22.8409 0.0869141V7.10676Z" fill="white"/>
<path d="M44.9953 7.10676H42.223V0.0869141H44.9953C46.7646 2.42686 46.7646 4.7668 44.9953 7.10676Z" fill="white"/>
</svg>
