<svg width="50" height="51" viewBox="0 0 50 51" fill="none" xmlns="http://www.w3.org/2000/svg">
<path d="M17.7854 11.7032L18.4254 14.4119L21.0815 13.6054L23.273 6.00522L17.7854 11.7032ZM17.6101 16.9103C17.4173 16.9103 17.2332 16.8664 17.0578 16.77C16.7949 16.6122 16.602 16.358 16.5319 16.06L15.4975 11.6243C15.4098 11.2561 15.515 10.8792 15.778 10.6074L24.7808 1.25398C25.1314 0.885801 25.6837 0.806906 26.1308 1.06112C26.5691 1.31534 26.7795 1.84131 26.6392 2.32345L23.0363 14.7976C22.9311 15.1571 22.6506 15.4376 22.2912 15.5515L17.9345 16.8664C17.8293 16.9015 17.7241 16.9103 17.6101 16.9103Z" fill="#0044CC"/>
<path d="M29.944 10.7653L28.4801 13.1233L30.9346 14.4383L37.851 10.6162L29.944 10.7653ZM26.1395 14.3243C26.008 14.1928 25.9028 14.0175 25.8502 13.8334C25.7713 13.5353 25.8239 13.2198 25.9817 12.9568L28.3836 9.09092C28.5852 8.76658 28.9271 8.57372 29.3041 8.56496L42.2779 8.3195C42.7864 8.31074 43.2422 8.64385 43.3737 9.13475C43.5052 9.62566 43.286 10.1429 42.839 10.3883L31.4693 16.6649C31.145 16.8489 30.7505 16.8489 30.4174 16.6736L26.4025 14.5172C26.3061 14.4646 26.2184 14.4032 26.1395 14.3243Z" fill="#0044CC"/>
<path d="M39.2099 18.6982L36.5099 19.3381L37.3076 21.9942L44.9079 24.1857L39.2099 18.6982ZM34.0028 18.5228C34.0028 18.33 34.0466 18.1459 34.1518 17.9706C34.3009 17.7076 34.5551 17.5147 34.8531 17.4446L39.2888 16.4102C39.657 16.3225 40.0427 16.4277 40.3056 16.6907L49.6591 25.6935C50.0273 26.0442 50.1062 26.5964 49.852 27.0435C49.5977 27.4818 49.0805 27.6922 48.5896 27.5519L36.1154 23.9491C35.756 23.8439 35.4755 23.5633 35.3703 23.2039L34.0466 18.8472C34.0203 18.742 34.0028 18.6368 34.0028 18.5228Z" fill="#0044CC"/>
<path d="M40.1479 30.8576L37.7898 29.3936L36.4749 31.8481L40.297 38.7646L40.1479 30.8576ZM36.5889 27.0531C36.7204 26.9216 36.8957 26.8164 37.0886 26.7638C37.3778 26.6849 37.6934 26.7375 37.9564 26.8953L41.8223 29.2972C42.1466 29.4988 42.3395 29.8407 42.3482 30.2176L42.5937 43.1915C42.6112 43.6999 42.2693 44.1558 41.7784 44.2873C41.2875 44.4188 40.7703 44.1996 40.5249 43.7525L34.2483 32.3829C34.073 32.0585 34.0642 31.6641 34.2483 31.3309L36.396 27.3161C36.4486 27.2196 36.51 27.132 36.5889 27.0531Z" fill="#0044CC"/>
<path d="M32.2146 40.1231L31.5834 37.4231L28.9273 38.2208L26.727 45.8211L32.2146 40.1231ZM32.3899 34.916C32.5827 34.916 32.7756 34.9598 32.9422 35.065C33.2051 35.2141 33.398 35.4683 33.4681 35.7663L34.5025 40.202C34.5902 40.5702 34.485 40.9559 34.222 41.2189L25.228 50.5723C24.8686 50.9405 24.3163 51.0194 23.878 50.7652C23.4309 50.5109 23.2205 49.9937 23.3608 49.5028L26.9637 37.0287C27.0689 36.6692 27.3494 36.3887 27.7088 36.2835L32.0655 34.9598C32.1707 34.9335 32.2847 34.916 32.3899 34.916Z" fill="#0044CC"/>
<path d="M20.0558 41.0608L21.5197 38.7027L19.074 37.3878L12.1488 41.2098L20.0558 41.0608ZM23.8603 37.5017C24.0006 37.6332 24.097 37.8085 24.1496 38.0014C24.2285 38.2907 24.1759 38.6063 24.0181 38.8692L21.6162 42.7351C21.4145 43.0594 21.0727 43.2523 20.6957 43.2611L7.72186 43.5065C7.21343 43.524 6.76636 43.1822 6.63486 42.6913C6.49461 42.2004 6.72253 41.6832 7.16083 41.4377L18.5305 35.1612C18.8548 34.9858 19.2581 34.9771 19.5824 35.1612L23.5973 37.3089C23.6937 37.3615 23.7814 37.4228 23.8603 37.5017Z" fill="#0044CC"/>
<path d="M10.7901 33.1273L13.4988 32.4961L12.6924 29.84L5.09213 27.6397L10.7901 33.1273ZM15.9972 33.3026C15.9972 33.4955 15.9534 33.6883 15.8569 33.8549C15.6991 34.1179 15.4449 34.3107 15.1469 34.3808L10.7112 35.4152C10.343 35.5029 9.9661 35.3977 9.69435 35.1347L0.340893 26.1407C-0.0272846 25.7813 -0.10618 25.229 0.148038 24.7907C0.402255 24.3436 0.928223 24.1332 1.41036 24.2735L13.8846 27.8764C14.244 27.9816 14.5245 28.2621 14.6384 28.6215L15.9534 32.9783C15.9884 33.0835 15.9972 33.1974 15.9972 33.3026Z" fill="#0044CC"/>
<path d="M9.85217 20.969L12.2103 22.433L13.5252 19.9872L9.70314 13.062L9.85217 20.969ZM13.4112 24.7735C13.2797 24.9138 13.1044 25.0102 12.9203 25.0628C12.6223 25.1417 12.3067 25.0891 12.0437 24.9313L8.17784 22.5294C7.85349 22.3278 7.66064 21.9859 7.65187 21.6089L7.40642 8.63507C7.39765 8.12664 7.73077 7.67956 8.22167 7.54807C8.71257 7.40781 9.22977 7.63573 9.47522 8.07404L15.7518 19.4437C15.9359 19.768 15.9359 20.1713 15.7605 20.4956L13.6041 24.5105C13.5515 24.6069 13.4901 24.6946 13.4112 24.7735Z" fill="#0044CC"/>
<path d="M24.9999 23.3443C24.5616 23.3443 24.1233 23.4583 23.7201 23.6862C22.4928 24.3962 22.0633 25.9654 22.7733 27.1926C23.1152 27.7887 23.6762 28.2183 24.3337 28.3936C24.9999 28.5689 25.6924 28.4813 26.2885 28.1394C27.5158 27.4293 27.9366 25.8514 27.2265 24.6242C26.7531 23.8001 25.8853 23.3443 24.9999 23.3443ZM25.0087 31.0585C24.5616 31.0585 24.1145 30.9971 23.6675 30.8832C22.3438 30.5238 21.2305 29.6734 20.5467 28.4813C19.1266 26.0267 19.9682 22.8709 22.4314 21.4508C24.8859 20.0395 28.0417 20.881 29.4531 23.3355C30.8732 25.7988 30.0317 28.9459 27.5771 30.366C26.7794 30.8218 25.9028 31.0585 25.0087 31.0585Z" fill="#0044CC" />
<path d="M14.0949 8.17906C14.9857 8.17906 15.7079 7.45691 15.7079 6.56609C15.7079 5.67527 14.9857 4.95312 14.0949 4.95312C13.2041 4.95312 12.4819 5.67527 12.4819 6.56609C12.4819 7.45691 13.2041 8.17906 14.0949 8.17906Z" fill="#0044CC"/>
<path d="M29.829 5.66215C30.4578 6.29103 31.4775 6.29103 32.1063 5.66215C32.7352 5.03327 32.7352 4.01366 32.1063 3.38478C31.4775 2.7559 30.4578 2.7559 29.829 3.38478C29.2001 4.01366 29.2001 5.03327 29.829 5.66215Z" fill="#0044CC"/>
<path d="M42.735 15.0078C42.735 15.8972 43.456 16.6182 44.3453 16.6182C45.2347 16.6182 45.9557 15.8972 45.9557 15.0078C45.9557 14.1184 45.2347 13.3975 44.3453 13.3975C43.456 13.3975 42.735 14.1184 42.735 15.0078Z" fill="#0044CC"/>
<path d="M45.2525 30.7422C44.6236 31.3711 44.6236 32.3907 45.2525 33.0195C45.8814 33.6484 46.901 33.6484 47.5299 33.0195C48.1588 32.3907 48.1588 31.3711 47.5299 30.7422C46.901 30.1133 45.8814 30.1133 45.2525 30.7422Z" fill="#0044CC"/>
<path d="M35.9051 46.8724C36.7959 46.8724 37.518 46.1503 37.518 45.2595C37.518 44.3686 36.7959 43.6465 35.9051 43.6465C35.0143 43.6465 34.2921 44.3686 34.2921 45.2595C34.2921 46.1503 35.0143 46.8724 35.9051 46.8724Z" fill="#0044CC"/>
<path d="M20.1721 46.166C19.5433 45.5371 18.5236 45.5371 17.8948 46.166C17.2659 46.7949 17.2659 47.8145 17.8948 48.4433C18.5236 49.0722 19.5433 49.0722 20.1721 48.4433C20.801 47.8145 20.801 46.7949 20.1721 46.166Z" fill="#0044CC"/>
<path d="M7.26599 36.8203C7.26599 35.9309 6.54501 35.21 5.65564 35.21C4.76627 35.21 4.04529 35.9309 4.04529 36.8203C4.04529 37.7097 4.76627 38.4307 5.65564 38.4307C6.54501 38.4307 7.26599 37.7097 7.26599 36.8203Z" fill="#0044CC"/>
<path d="M4.74845 21.085C5.37733 20.4561 5.37733 19.4365 4.74845 18.8076C4.11957 18.1787 3.09996 18.1787 2.47108 18.8076C1.8422 19.4365 1.8422 20.4561 2.47108 21.085C3.09996 21.7139 4.11957 21.7139 4.74845 21.085Z" fill="#0044CC"/>
</svg>
