<svg width="50" height="53" viewBox="0 0 50 53" fill="none" xmlns="http://www.w3.org/2000/svg">
<path d="M24.0815 25.2903C23.4426 25.2903 22.8298 25.0365 22.378 24.5847C21.9262 24.1329 21.6724 23.5202 21.6724 22.8812V18.063C21.6724 17.4241 21.9262 16.8113 22.378 16.3595C22.8298 15.9077 23.4426 15.6539 24.0815 15.6539C24.7205 15.6539 25.3332 15.9077 25.785 16.3595C26.2368 16.8113 26.4906 17.4241 26.4906 18.063V22.8812C26.4906 23.5202 26.2368 24.1329 25.785 24.5847C25.3332 25.0365 24.7205 25.2903 24.0815 25.2903Z" fill="#0044CC"/>
<path d="M33.7203 25.2908C33.0813 25.2908 32.4686 25.037 32.0168 24.5852C31.565 24.1334 31.3112 23.5206 31.3112 22.8817V18.0635C31.3112 17.4246 31.565 16.8118 32.0168 16.36C32.4686 15.9082 33.0813 15.6544 33.7203 15.6544C34.3592 15.6544 34.972 15.9082 35.4237 16.36C35.8755 16.8118 36.1294 17.4246 36.1294 18.0635V22.8817C36.1294 23.5206 35.8755 24.1334 35.4237 24.5852C34.972 25.037 34.3592 25.2908 33.7203 25.2908Z" fill="#0044CC"/>
<path d="M43.3571 43.3628H14.4438C12.5267 43.3628 10.6882 42.6012 9.33258 41.2457C7.97701 39.8901 7.21545 38.0515 7.21545 36.1345C7.21545 34.2174 7.97701 32.3788 9.33258 31.0233C10.6882 29.6677 12.5267 28.9061 14.4438 28.9061H33.7193C34.3584 28.9061 34.9712 29.16 35.4231 29.6118C35.8749 30.0637 36.1288 30.6765 36.1288 31.3156C36.1288 31.9546 35.8749 32.5674 35.4231 33.0193C34.9712 33.4712 34.3584 33.725 33.7193 33.725H14.4438C13.8048 33.725 13.1919 33.9789 12.7401 34.4307C12.2882 34.8826 12.0343 35.4954 12.0343 36.1345C12.0343 36.7735 12.2882 37.3863 12.7401 37.8382C13.1919 38.29 13.8048 38.5439 14.4438 38.5439H43.3571C43.9961 38.5439 44.609 38.7977 45.0608 39.2496C45.5127 39.7015 45.7665 40.3143 45.7665 40.9533C45.7665 41.5924 45.5127 42.2052 45.0608 42.6571C44.609 43.1089 43.9961 43.3628 43.3571 43.3628Z" fill="#0044CC"/>
<path d="M15.6496 53.0001C17.978 53.0001 19.8656 51.1125 19.8656 48.7842C19.8656 46.4558 17.978 44.5682 15.6496 44.5682C13.3212 44.5682 11.4337 46.4558 11.4337 48.7842C11.4337 51.1125 13.3212 53.0001 15.6496 53.0001Z" fill="#0044CC"/>
<path d="M37.3338 53.0001C39.6622 53.0001 41.5498 51.1125 41.5498 48.7842C41.5498 46.4558 39.6622 44.5682 37.3338 44.5682C35.0055 44.5682 33.1179 46.4558 33.1179 48.7842C33.1179 51.1125 35.0055 53.0001 37.3338 53.0001Z" fill="#0044CC"/>
<path d="M14.009 33.7481C13.4451 33.7475 12.8992 33.5492 12.4665 33.1876C12.0338 32.826 11.7416 32.3241 11.6407 31.7693L7.81009 10.6631C7.6898 10.0245 7.44324 9.41642 7.08485 8.87439C6.72646 8.33237 6.26346 7.86735 5.723 7.5066L1.06413 4.40774C0.535913 4.0523 0.16988 3.50221 0.0460295 2.87769C-0.0778209 2.25318 0.0505828 1.60504 0.403177 1.07491C0.755771 0.544792 1.30388 0.175801 1.92772 0.0485881C2.55155 -0.0786248 3.20038 0.0462855 3.73239 0.396019L8.40657 3.5042C9.48138 4.22246 10.4016 5.14854 11.113 6.2279C11.8244 7.30725 12.3127 8.51805 12.549 9.78899L16.382 30.9081C16.4385 31.2194 16.4332 31.5388 16.3664 31.8481C16.2995 32.1573 16.1723 32.4504 15.9922 32.7105C15.812 32.9706 15.5824 33.1927 15.3164 33.3641C15.0504 33.5355 14.7533 33.6528 14.442 33.7093C14.2991 33.7355 14.1542 33.7485 14.009 33.7481Z" fill="#0044CC"/>
<path d="M39.4078 33.7247H18.4664C16.7738 33.7251 15.1348 33.1314 13.8351 32.0472C12.5354 30.9629 11.6575 29.4569 11.3545 27.7917L8.64146 12.9033C8.51508 12.2087 8.54282 11.4949 8.72272 10.8122C8.90262 10.1296 9.2303 9.49477 9.68257 8.95271C10.1348 8.41066 10.7007 7.97458 11.3401 7.67531C11.9795 7.37604 12.6768 7.22089 13.3827 7.22083H43.4231C44.3518 7.2206 45.2679 7.43514 46.0999 7.84767C46.9319 8.26021 47.6572 8.85955 48.2191 9.59888C48.781 10.3382 49.1644 11.1975 49.3392 12.1095C49.514 13.0215 49.4755 13.9616 49.2267 14.8563L45.2114 29.313C44.8567 30.5802 44.0979 31.6969 43.0503 32.4933C42.0027 33.2896 40.7237 33.722 39.4078 33.7247ZM13.3827 12.0397L16.0958 26.9281C16.1967 27.4833 16.4893 27.9853 16.9225 28.3468C17.3557 28.7082 17.9021 28.9061 18.4664 28.9058H39.4078C39.671 28.9052 39.9268 28.8187 40.1364 28.6595C40.346 28.5002 40.4979 28.2769 40.569 28.0234L44.5843 13.5668C44.6342 13.3878 44.642 13.1997 44.6071 13.0172C44.5722 12.8347 44.4955 12.6628 44.383 12.5149C44.2705 12.3669 44.1254 12.2471 43.9588 12.1646C43.7923 12.0822 43.609 12.0395 43.4231 12.0397H13.3827Z" fill="#0044CC"/>
</svg>
