<svg width="35" height="30" viewBox="0 0 35 30" fill="none" xmlns="http://www.w3.org/2000/svg">
<path d="M4.10228 8.18166H30.0114C32.2704 8.18166 34.1021 6.35029 34.1021 4.09091C34.1021 1.83168 32.2704 0 30.0114 0H1.20492C0.541249 0 0 0.541249 0 1.20492V1.5222C0 2.18587 0.541249 2.72712 1.20492 2.72712H30.0114C30.762 2.73288 31.3692 3.34017 31.375 4.09091C31.3727 4.84305 30.7635 5.45252 30.0114 5.45455H4.10228C1.8443 5.45782 0.014641 7.28747 0.0113701 9.54545C0.0132392 11.8039 1.84367 13.6343 4.10228 13.6362H30.0114C30.762 13.6417 31.3692 14.2489 31.375 15C31.3727 15.7521 30.7635 16.3613 30.0114 16.3636H4.10228C1.8443 16.3671 0.014641 18.1966 0.0113701 20.4545C0.0132392 22.7132 1.84367 24.5436 4.10228 24.5453H30.0114C30.762 24.5508 31.3692 25.1582 31.375 25.9091C31.3727 26.6612 30.7635 27.2704 30.0114 27.2724H23.7161C23.0524 27.2724 22.5111 27.8138 22.5111 28.4773V28.7951C22.5111 29.4586 23.0524 30 23.7161 30L30.0114 29.9998C32.2692 29.9966 34.0989 28.1671 34.1021 25.9091C34.1003 23.6505 32.2698 21.8197 30.0114 21.8182H4.10228C3.35123 21.8124 2.74394 21.2054 2.73849 20.4545C2.74098 19.7024 3.35014 19.0929 4.10228 19.0908H30.0114C32.2692 19.0875 34.0989 17.258 34.1021 15C34.1003 12.7414 32.2698 10.911 30.0114 10.9091H4.10228C3.35123 10.9036 2.74394 10.2963 2.73849 9.54545C2.74098 8.79331 3.35014 8.18415 4.10228 8.18166Z" fill="#1F94D2"/>
</svg>
