<svg width="18" height="19" viewBox="0 0 18 19" fill="none" xmlns="http://www.w3.org/2000/svg">
<g clip-path="url(#clip0_241_1068)">
<path fill-rule="evenodd" clip-rule="evenodd" d="M1.5 2.21021C1.5 1.93406 1.72386 1.71021 2 1.71021H16C16.2761 1.71021 16.5 1.93406 16.5 2.21021C16.5 2.48635 16.2761 2.71021 16 2.71021H2C1.72386 2.71021 1.5 2.48635 1.5 2.21021ZM1.5 9.21021C1.5 8.93406 1.72386 8.71021 2 8.71021H16C16.2761 8.71021 16.5 8.93406 16.5 9.21021C16.5 9.48635 16.2761 9.71021 16 9.71021H2C1.72386 9.71021 1.5 9.48635 1.5 9.21021ZM2 15.7102C1.72386 15.7102 1.5 15.9341 1.5 16.2102C1.5 16.4863 1.72386 16.7102 2 16.7102H16C16.2761 16.7102 16.5 16.4863 16.5 16.2102C16.5 15.9341 16.2761 15.7102 16 15.7102H2Z" fill="#0044CC"/>
<circle cx="13" cy="2.21021" r="1.5" fill="white" stroke="#0044CC"/>
<circle cx="13" cy="16.2102" r="1.5" fill="white" stroke="#0044CC"/>
<circle cx="6" cy="9.21021" r="1.5" fill="white" stroke="#0044CC"/>
</g>
<defs>
<clipPath id="clip0_241_1068">
<rect width="18" height="18" fill="white" transform="translate(0 0.210205)"/>
</clipPath>
</defs>
</svg>
