<svg width="43" height="38" viewBox="0 0 43 38" fill="none" xmlns="http://www.w3.org/2000/svg">
<path d="M0.581597 20.2641C3.10558 22.429 5.96622 24.8829 11.4996 24.8829C17.0331 24.8828 19.8939 22.429 22.418 20.2641C24.805 18.2168 26.8665 16.4485 31.1663 16.4485C35.4661 16.4485 37.5276 18.2168 39.9145 20.2641C40.6133 20.8633 41.6654 20.7828 42.2647 20.0842C42.8639 19.3854 42.7834 18.3333 42.0847 17.734C39.5606 15.5691 36.6998 13.1152 31.1663 13.1152C25.6327 13.1152 22.7719 15.569 20.2478 17.734C17.8609 19.7813 15.7994 21.5496 11.4996 21.5496C7.19987 21.5496 5.13864 19.7814 2.75183 17.734C2.05317 17.1348 1.00101 17.2152 0.401682 17.9139C-0.197646 18.6126 -0.117064 19.6648 0.581597 20.2641Z" fill="#1F94D2"/>
<path d="M0.581597 11.1489C3.10549 13.3138 5.96614 15.7677 11.4996 15.7677C17.0331 15.7677 19.8939 13.3138 22.418 11.1489C24.805 9.10154 26.8664 7.33331 31.1663 7.33331C35.466 7.33331 37.5275 9.10146 39.9145 11.1489C40.6133 11.7483 41.6653 11.6675 42.2646 10.9688C42.8639 10.2701 42.7832 9.21779 42.0845 8.61863C39.5604 6.45365 36.6996 4 31.1663 4C25.6327 4 22.7719 6.45381 20.2478 8.61879C17.8609 10.6661 15.7994 12.4343 11.4996 12.4343C7.19996 12.4343 5.13864 10.6662 2.75183 8.61879C2.05317 8.01947 1.00093 8.09997 0.401682 8.79871C-0.197646 9.49737 -0.117064 10.5496 0.581597 11.1489Z" fill="#1F94D2"/>
<path d="M42.0847 26.8512C39.5606 24.6863 36.6998 22.2324 31.1663 22.2324C25.6328 22.2324 22.772 24.6862 20.2479 26.8512C17.8609 28.8985 15.7994 30.6668 11.4996 30.6668C7.20018 30.6668 5.13878 28.8986 2.75196 26.8514L2.7518 26.8512C2.05314 26.2521 1.00106 26.3326 0.401734 27.0312C-0.19751 27.7299 -0.116928 28.7821 0.581733 29.3814C3.10571 31.5463 5.96644 34.0001 11.4996 34.0001C17.0332 34.0001 19.894 31.5463 22.418 29.3813C24.805 27.334 26.8665 25.5657 31.1663 25.5657C35.4662 25.5657 37.5277 27.334 39.9146 29.3813C40.6133 29.9805 41.6655 29.9 42.2647 29.2014C42.864 28.5026 42.7835 27.4505 42.0847 26.8512Z" fill="#1F94D2"/>
</svg>
