<svg width="34" height="34" viewBox="0 0 34 34" fill="none" xmlns="http://www.w3.org/2000/svg">
<path d="M3.0002 32V10.0223L1.49046 10.8716C1.00908 11.1423 0.399402 10.9716 0.128597 10.4903C-0.142141 10.0089 0.0285225 9.39922 0.509901 9.12841L16.5099 0.128446C16.8144 -0.0428154 17.186 -0.0428154 17.4904 0.128446L33.4904 9.12841C33.9718 9.39922 34.1425 10.0089 33.8717 10.4903C33.601 10.9717 32.9912 11.1423 32.5099 10.8716L31.0001 10.0223V32H33.0001C33.5524 32 34.0001 32.4477 34.0001 33C34.0001 33.5523 33.5524 34 33.0001 34H1.00024C0.447944 34 0.000234254 33.5523 0.000234254 33C0.000234254 32.4477 0.447944 32 1.00024 32H3.0002ZM5.00022 32H29.0002V8.89732L17.0002 2.14733L5.00022 8.89732V32ZM15.2073 10.7071C14.8168 11.0976 14.1836 11.0976 13.7931 10.7071C13.4026 10.3166 13.4026 9.68344 13.7931 9.2929L16.2931 6.79291C16.6837 6.40237 17.3168 6.40237 17.7073 6.79291L20.2073 9.2929C20.5978 9.68337 20.5978 10.3166 20.2073 10.7071C19.8168 11.0976 19.1836 11.0976 18.7931 10.7071L18.0002 9.9142V16C18.0002 16.5523 17.5525 17 17.0002 17C16.4479 17 16.0002 16.5523 16.0002 16V9.9142L15.2073 10.7071ZM8.20731 14.2071C7.81678 14.5976 7.18359 14.5976 6.79312 14.2071C6.40259 13.8166 6.40259 13.1834 6.79312 12.7929L9.29312 10.2929C9.68365 9.90238 10.3168 9.90238 10.7073 10.2929L13.2073 12.7929C13.5978 13.1834 13.5978 13.8166 13.2073 14.2071C12.8168 14.5976 12.1836 14.5976 11.7931 14.2071L11.0002 13.4142V19.5C11.0002 20.0523 10.5525 20.5 10.0002 20.5C9.44791 20.5 9.0002 20.0523 9.0002 19.5V13.4142L8.20731 14.2071ZM25.0002 19.5C25.0002 20.0523 24.5525 20.5 24.0002 20.5C23.4479 20.5 23.0002 20.0523 23.0002 19.5V13.4142L22.2073 14.2071C21.8167 14.5976 21.1835 14.5976 20.7931 14.2071C20.4025 13.8166 20.4025 13.1834 20.7931 12.7929L23.2931 10.2929C23.6836 9.90238 24.3168 9.90238 24.7073 10.2929L27.2073 12.7929C27.5978 13.1834 27.5978 13.8166 27.2073 14.2071C26.8167 14.5976 26.1835 14.5976 25.7931 14.2071L25.0002 13.4142V19.5Z" fill="#1F94D2"/>
</svg>
